<mxfile host="app.diagrams.net" modified="2024-01-14T20:04:13.911Z" agent="Mozilla/5.0 (Windows NT 10.0; Win64; x64) AppleWebKit/537.36 (KHTML, like Gecko) Chrome/120.0.0.0 Safari/537.36" version="22.1.18" etag="U6W48MMG-JVWtofMi7Ey" type="github">
  <diagram name="PÃ¡gina-1" id="EWLOTJEld1F3jvZc6FLe">
    <mxGraphModel>
      <root>
        <mxCell id="0" />
        <mxCell id="1" parent="0" />
      </root>
    </mxGraphModel>
  </diagram>
</mxfile>
